<?xml version="1.0" encoding="UTF-8" standalone="no"?>
<!-- Created with Inkscape (http://www.inkscape.org/) -->

<svg
   version="1.1"
   id="svg206"
   width="1000"
   height="418.56"
   viewBox="0 0 1000 418.56"
   sodipodi:docname="suaslogo.svg"
   inkscape:export-filename="suaslogo-highcontrast.png"
   inkscape:export-xdpi="384"
   inkscape:export-ydpi="384"
   inkscape:version="1.2.2 (b0a8486541, 2022-12-01)"
   xmlns:inkscape="http://www.inkscape.org/namespaces/inkscape"
   xmlns:sodipodi="http://sodipodi.sourceforge.net/DTD/sodipodi-0.dtd"
   xmlns="http://www.w3.org/2000/svg"
   xmlns:svg="http://www.w3.org/2000/svg">
  <defs
     id="defs210" />
  <sodipodi:namedview
     id="namedview208"
     pagecolor="#b7b7b7"
     bordercolor="#000000"
     borderopacity="0.25"
     inkscape:showpageshadow="2"
     inkscape:pageopacity="0"
     inkscape:pagecheckerboard="0"
     inkscape:deskcolor="#d1d1d1"
     showgrid="false"
     inkscape:zoom="1.0256096"
     inkscape:cx="433.40077"
     inkscape:cy="239.85734"
     inkscape:window-width="1920"
     inkscape:window-height="1134"
     inkscape:window-x="0"
     inkscape:window-y="34"
     inkscape:window-maximized="1"
     inkscape:current-layer="g212" />
  <g
     inkscape:groupmode="layer"
     inkscape:label="Image"
     id="g212">
    <path
       id="path8387"
       style="fill:#000000;stroke-width:1;stroke:#000000;stroke-opacity:1;fill-opacity:1;stroke-dasharray:none"
       d="m 128.81144,55.284607 c -2.97673,0.09095 -5.90369,0.333987 -7.81054,0.703125 -17.38465,3.365418 -31.526149,14.137043 -39.080084,29.765625 -3.50952,7.260963 -5.045034,13.510953 -5.314453,21.621093 -0.194346,5.85024 0.230983,10.14738 1.505859,15.19531 5.610151,22.21374 24.447428,38.41603 47.369148,40.74219 7.34962,0.74587 15.19233,-0.14864 22.56054,-2.57422 2.96638,-0.97652 10.43534,-4.4973 11.00977,-5.18945 0.23629,-0.28471 -0.82148,-1.53295 -3.92578,-4.63086 l -4.25,-4.24024 -2.48828,1.13282 c -5.74925,2.62001 -11.22693,3.77866 -17.78516,3.75976 -5.07095,-0.0146 -8.76209,-0.60575 -13.33594,-2.13476 -5.40231,-1.80599 -10.46719,-4.70454 -14.4043,-8.24415 -9.131669,-8.20969 -13.955964,-18.36799 -14.400389,-30.31835 -0.446892,-12.016659 3.804575,-22.787 12.378909,-31.36133 8.6276,-8.627601 19.37201,-12.842184 31.52148,-12.365235 15.85169,0.622285 29.48699,9.565421 36.48633,23.931641 5.41468,11.113644 5.51741,24.559644 0.27539,36.062494 l -1.10546,2.42188 4.23437,4.24219 c 2.83068,2.83651 4.35175,4.14519 4.58789,3.94921 0.19425,-0.16122 1.01423,-1.55777 1.82227,-3.10546 11.33163,-21.70455 7.01972,-47.729581 -10.70313,-64.597658 -8.55376,-8.141213 -19.29757,-13.178278 -31.03516,-14.548828 -2.11024,-0.246404 -5.13655,-0.307745 -8.11328,-0.216797 z m 629.79102,0.01563 c -7.20825,0.467348 -16.75911,4.940724 -22.2793,10.435547 -3.22403,3.209175 -7.32472,9.93054 -8.69922,14.257813 -1.16384,3.664066 -2.14257,16.3827 -2.14257,27.869143 -9e-5,3.53588 -0.0925,8.8042 -0.20704,11.70703 l -0.20898,5.27734 -2.82617,1.82421 c -1.55463,1.00321 -4.42925,2.71081 -6.38672,3.79492 -1.95748,1.08411 -3.61781,2.12847 -3.69141,2.32032 -0.0736,0.19185 0.77963,2.57475 1.89649,5.29688 1.11687,2.72211 2.12471,5.20512 2.24023,5.51758 0.19241,0.5204 0.37061,0.48723 2.13281,-0.40234 3.26829,-1.64981 10.31,-5.77405 12.38672,-7.25587 2.30512,-1.64476 5.18142,-4.65786 6.34571,-6.64453 l 0.81836,-1.39454 0.29882,-19.63475 c 0.18624,-12.244853 0.44036,-20.417709 0.67383,-21.714846 0.20592,-1.143999 0.89935,-3.304783 1.54102,-4.800782 3.96168,-9.236457 10.11718,-13.444463 19.70703,-13.470703 7.18073,-0.01965 12.3025,2.501775 15.92773,7.839844 1.62829,2.397601 3.89728,7.480918 4.38282,9.816406 0.22058,1.060949 0.49381,9.555863 0.70117,21.880861 l 0.33789,20.14647 1.53125,2.25391 c 3.79567,5.58479 6.50669,7.19536 46.75781,27.79492 28.92218,14.80167 42.3458,22.12315 56.60156,30.87305 12.04437,7.39257 15.41005,10.2628 18.05078,15.39258 1.78713,3.47157 3.41983,8.06581 4.53125,12.75 0.73843,3.11219 1.02983,6.48242 0.56055,6.48242 -0.11933,0 -1.8111,-0.49447 -3.75976,-1.09961 -4.94803,-1.53656 -33.50993,-9.88799 -45.61524,-13.33789 -26.93299,-7.67566 -46.40545,-12.25771 -58.98437,-13.87695 -10.44863,-1.34501 -15.59212,0.1535 -18.90625,5.50781 l -0.83789,1.35352 0.0195,34.64648 c 0.011,19.05549 0.1424,39.11041 0.29101,44.56641 0.25923,9.51767 0.30368,10.01765 1.10742,12.32031 2.07766,5.95234 6.55403,13.54602 11.89258,20.17969 3.28201,4.07824 4.23515,5.19607 14.32813,16.78125 10.44895,11.9938 15.39733,18.34852 14.77344,18.97265 -0.29216,0.29227 -118.68317,0.50074 -124.21485,0.21875 -3.84175,-0.19587 -4.1873,-0.2635 -4.04883,-0.79297 0.36137,-1.38192 4.92916,-6.99939 17.04492,-20.95898 3.97158,-4.576 7.92009,-9.14816 8.77344,-10.16016 l 1.55078,-1.83984 -8.27929,0.0195 -8.27735,0.0176 -5.33789,6.14062 c -11.21423,12.90322 -14.52553,17.2571 -17.2539,22.6836 -4.07405,8.10287 -4.27341,14.5294 -0.50782,16.37304 0.89798,0.43966 2.35868,0.65956 5.59571,0.83985 h 0.002 c 7.25795,0.40384 143.2793,0.1626 145.3418,-0.25781 2.39253,-0.48768 2.99154,-0.8596 3.8789,-2.40821 1.67005,-2.9146 0.54602,-8.9956 -2.81836,-15.24804 -3.08703,-5.73701 -6.54441,-10.1755 -18.82226,-24.16015 -13.09407,-14.91441 -16.40499,-19.22975 -19.88672,-25.91992 l -2.16602,-4.16016 -0.13281,-41.32617 -0.13281,-41.32422 1.56055,0.13867 c 8.04914,0.71346 12.4862,1.42848 21.71875,3.5 16.42891,3.68619 35.51811,8.96345 77.49023,21.42383 10.22409,3.03525 18.59424,5.35291 21.33203,5.90625 1.74912,0.35352 1.96084,0.3258 3.51953,-0.44336 1.79671,-0.88663 2.92539,-2.25996 3.4668,-4.2207 0.62973,-2.28077 -0.839,-14.59566 -2.59766,-21.78907 -3.26847,-13.36885 -8.67617,-21.08576 -20.17187,-28.7871 -13.66252,-9.15298 -36.79506,-21.97706 -67.35938,-37.33986 -22.78964,-11.45494 -31.52087,-16.10812 -36.56054,-19.48436 l -2.31836,-1.55469 -0.01,-5.83008 c -0.0269,-16.87087 -0.92945,-33.210237 -2.08984,-37.830079 -0.64428,-2.56513 -2.88865,-7.121098 -5.22071,-10.601562 -6.32522,-9.440408 -18.14394,-15.713076 -28.35916,-15.050777 z m -628.5918,40.267579 c -2.64812,0.108028 -3.39766,0.271 -5.25586,1.142578 -2.85611,1.339652 -5.37714,3.858716 -6.71679,6.714846 -0.87503,1.86557 -1.03453,2.60548 -1.14453,5.30272 -0.10846,2.65931 -0.0182,3.43395 0.59374,5.11915 2.51997,6.9391 9.66642,10.86281 16.53907,9.08007 l 1.64453,-0.42773 24.26367,24.26758 c 13.34568,13.34653 24.41273,24.26563 24.5918,24.26563 0.17908,0 2.08597,-1.7644 4.23828,-3.92188 l 3.91406,-3.92383 -24.42578,-24.42188 -24.42383,-24.42382 0.42578,-1.64257 c 1.17237,-4.5196 -0.1381,-9.37176 -3.48828,-12.914067 -3.05298,-3.228075 -6.06285,-4.408244 -10.75586,-4.216797 z m 263.31055,18.185544 v 95.03906 95.04101 h 25.28125 25.2793 v -95.04101 -95.03907 h -25.2793 z m -85.12695,0.54296 c -0.25959,0.28638 -76.47266,188.95821 -76.47266,189.31446 0,0.12441 11.03594,0.18958 24.52344,0.14453 l 24.52148,-0.082 13.8125,-36.22852 c 7.59674,-19.92556 13.88039,-36.29641 13.96289,-36.37891 0.0825,-0.0825 6.2773,16.22045 13.76758,36.22852 l 13.61914,36.37891 24.22266,0.082 24.2207,0.082 -0.42578,-1.04297 c -0.23431,-0.5731 -17.32183,-43.27563 -37.97266,-94.89648 -20.6508,-51.62085 -37.65157,-93.74247 -37.77929,-93.60157 z m 383.33007,0.0176 c -0.23636,0.24749 -76.09719,187.95556 -76.36718,188.96095 -0.1431,0.53289 1.11733,0.55817 24.38867,0.48047 l 24.54101,-0.082 13.66797,-35.83985 c 7.51773,-19.71198 13.78111,-36.12847 13.91992,-36.48047 0.18723,-0.47486 3.77833,8.77282 13.91407,35.83985 l 13.66015,36.48046 24.20508,0.082 24.20508,0.082 -37.95312,-94.88281 C 708.83205,156.76938 691.6505,114.1818 691.52433,114.3139 Z m -161.94531,0.0195 c -0.12285,0.12051 -17.20717,42.26821 -37.96289,93.66016 -20.75573,51.39195 -37.96381,93.97867 -38.24023,94.63867 l -0.50196,1.20117 h 24.58985 24.59179 l 1.26563,-3.28125 c 0.69612,-1.804 6.93075,-18.14638 13.85547,-36.31836 6.92476,-18.17198 12.68141,-33.04101 12.79297,-33.04101 0.11155,0 6.31146,16.34318 13.77734,36.3164 l 13.57422,36.31642 24.21875,0.004 24.21875,0.004 -37.97852,-94.85937 C 546.89192,156.80159 529.7019,114.21291 529.57902,114.33343 Z m -313.36133,48.52344 c -4.79946,0.004 -6.34175,0.1126 -7.61328,0.33203 -10.90608,1.88208 -19.57112,9.94011 -22.71679,21.125 -0.71499,2.5413 -0.71875,2.71869 -0.71875,24.47852 0,21.69461 0.007,21.94679 0.71289,24.48047 0.98874,3.54723 3.26029,8.01137 5.53125,10.86914 4.38313,5.51571 11.11762,9.30048 18.48828,10.38867 1.00074,0.14774 7.84364,0.24811 15.20508,0.22461 l 13.38476,-0.043 2.83008,-6.94922 c 1.5569,-3.82237 2.9236,-7.24198 3.03711,-7.59961 0.20559,-0.64802 0.14564,-0.6503 -16.05469,-0.6543 -12.75153,-0.003 -16.61792,-0.0993 -17.91015,-0.44336 -3.92592,-1.0453 -7.05799,-3.69021 -8.85352,-7.48046 l -1.01758,-2.15235 v -20.64058 -20.63868 l 1.01758,-2.15234 c 1.14559,-2.41827 3.43716,-5.04959 5.37109,-6.16992 0.71006,-0.41134 2.12953,-0.98916 3.1543,-1.2832 1.72572,-0.49518 3.97372,-0.50423 30.48242,-0.13477 15.74137,0.21941 28.70794,0.31353 28.8125,0.20899 0.28396,-0.28397 6.1649,-14.7726 6.04492,-14.89258 -0.0568,-0.0568 -14.47203,-0.31145 -32.0332,-0.56641 -14.29926,-0.20761 -22.35483,-0.31028 -27.1543,-0.30664 z m -31.70117,84.33984 -24.43359,24.43555 -24.43555,24.43555 -1.48242,-0.46289 c -1.0163,-0.31695 -2.37084,-0.41641 -4.30274,-0.31641 -2.41816,0.12511 -3.14743,0.30876 -5.12304,1.28516 -2.88678,1.42672 -5.27569,3.78826 -6.66016,6.58203 -0.91844,1.85335 -1.06591,2.50513 -1.17969,5.2168 -0.0993,2.36724 0.005,3.52857 0.44141,4.91601 1.28655,4.09027 4.46802,7.43743 8.54492,8.98828 1.70289,0.6478 2.4643,0.74427 5.19532,0.66797 2.82272,-0.0788 3.45553,-0.20922 5.36328,-1.10547 2.54895,-1.19751 5.23487,-3.62056 6.41406,-5.78711 1.69626,-3.11658 2.23845,-7.17278 1.375,-10.29883 l -0.39844,-1.43945 24.42578,-24.48437 24.42383,-24.48243 -4.08398,-4.07421 z m -52.35351,7.78711 c -8.84027,-0.23686 -17.65073,1.66939 -25.63868,5.66602 -15.119562,7.56482 -25.426973,21.05128 -29.089842,38.0625 -0.627565,2.91454 -0.722657,4.29373 -0.722657,10.40039 0,7.98257 0.408219,10.64716 2.681641,17.47656 6.52807,19.61044 24.340928,34.02209 45.023438,36.42578 1.2012,0.13961 3.86875,0.27388 5.92774,0.29688 18.36849,0.20634 35.7446,-9.12977 45.77734,-24.59766 8.99701,-13.87105 11.19931,-31.03589 6.00586,-46.80273 -0.94927,-2.88191 -4.99481,-11.4375 -5.4082,-11.4375 -0.11387,0 -2.12519,1.92303 -4.47071,4.27344 l -4.26562,4.27343 0.79297,1.56641 c 2.63998,5.21716 4.13674,11.83818 4.15234,18.36719 0.0167,6.97931 -1.152,12.24942 -4.07812,18.39843 -5.77775,12.14143 -16.59272,20.50175 -30.28907,23.41407 -3.65201,0.776 -11.81487,0.77827 -15.70703,0.004 -11.28631,-2.2455 -21.26209,-8.88225 -27.498047,-18.29687 -10.338544,-15.60838 -9.107992,-36.10863 3.042968,-50.66992 9.921749,-11.88986 26.554559,-17.45036 41.705079,-13.94336 2.54617,0.58939 7.17307,2.22091 9.1836,3.23828 l 1.5664,0.79297 4.27344,-4.26562 c 2.35035,-2.34553 4.27344,-4.35683 4.27344,-4.47071 0,-0.41532 -8.56149,-4.46148 -11.46485,-5.41797 -5.15492,-1.69826 -10.46927,-2.61179 -15.77343,-2.75391 z" />
    <path
       id="path8387-3"
       style="fill:#fdb515;fill-opacity:1;stroke-width:1;stroke-dasharray:none;stroke:#a67a05;stroke-opacity:1"
       d="m 208.70793,325.04046 c -3.38101,-0.0933 -6.47161,1.65945 -8.01563,4.8125 -1.96626,4.01529 -1.57626,6.29818 1.4668,8.59571 1.84561,1.39344 2.19784,2.03289 1.89062,3.43164 -0.52009,2.368 -3.40814,3.1686 -6.17773,1.71289 -0.75342,-0.396 -1.42383,-0.7207 -1.49023,-0.7207 -0.1672,-10e-6 -1.46094,3.87035 -1.46094,4.37109 0,0.58778 1.15587,1.11924 3.01758,1.38672 5.64834,0.81159 10.72466,-2.99436 11.28906,-8.46289 0.22214,-2.15232 -0.29375,-3.13476 -2.77148,-5.28125 -2.30201,-1.99427 -2.52178,-2.99387 -0.99805,-4.51758 1.14672,-1.14675 2.85787,-1.25347 4.45898,-0.27735 0.59185,0.36083 1.11521,0.6121 1.16211,0.5586 0.42735,-0.48778 2.40235,-3.81478 2.40235,-4.04688 0,-0.16534 -0.6033,-0.54241 -1.3418,-0.83789 -1.14518,-0.45821 -2.30464,-0.6935 -3.43164,-0.72461 z m 436.41406,0.0332 c -1.11029,0.11142 -2.22229,0.44772 -3.37109,1.00976 -4.60905,2.25501 -8.74805,10.11191 -8.74805,16.59961 7.7e-4,3.51533 1.3116,5.43767 4.05859,5.95117 0.67143,0.12546 1.50738,0.18456 1.85938,0.13086 0.352,-0.0538 1.30493,-0.18423 2.11719,-0.28906 0.81222,-0.10483 1.73244,-0.37699 2.04492,-0.60547 0.51283,-0.375 1.88848,-4.01581 1.61914,-4.28515 -0.0613,-0.0614 -0.60979,0.0971 -1.21875,0.35156 -2.11251,0.88265 -3.54587,0.95642 -4.46875,0.23047 -1.20435,-0.94736 -1.36996,-2.53007 -0.58399,-5.58594 1.14477,-4.45065 2.91116,-7.62581 4.92774,-8.85547 1.2831,-0.7823 2.31254,-0.77556 3.81055,0.0273 l 1.19726,0.64258 1.14258,-1.78515 c 0.62836,-0.98224 1.06606,-1.98497 0.97266,-2.22852 -0.0935,-0.24356 -0.99232,-0.68223 -1.99805,-0.97461 -1.14242,-0.33211 -2.25104,-0.44541 -3.36133,-0.33398 z m -47.6582,0.0215 c -1.41316,10e-4 -2.84459,0.25805 -3.89844,0.77149 -3.02682,1.47464 -5.04297,4.8604 -5.04297,8.46679 0,1.60877 0.0267,1.65446 2.41016,3.93946 2.18338,2.09282 2.39082,2.39948 2.18945,3.21679 -0.72058,2.92461 -3.43077,3.76221 -6.45898,1.99805 -0.58205,-0.3391 -1.16956,-0.61523 -1.30664,-0.61523 -0.13709,0 -0.48031,0.82784 -0.76172,1.83984 -0.28144,1.012 -0.59884,2.06708 -0.70508,2.34375 -0.24551,0.63939 1.01394,1.25148 3.19141,1.55273 4.67394,0.64665 8.35265,-1.36282 10.30664,-5.63086 0.90984,-1.98738 1.02421,-4.37585 0.27929,-5.8164 -0.2833,-0.5478 -1.29916,-1.58869 -2.25781,-2.3125 -2.03117,-1.53353 -2.28393,-2.08654 -1.64844,-3.60742 0.79705,-1.90765 2.6888,-2.34906 5.00391,-1.16797 l 1.25586,0.64062 1.06836,-1.68164 c 0.58781,-0.92461 1.17451,-1.85508 1.30273,-2.06836 0.15124,-0.25152 -0.24904,-0.63935 -1.13867,-1.10351 -0.98117,-0.51179 -2.3759,-0.76671 -3.78906,-0.76563 z m -17.33399,0.006 c -1.3998,0.0225 -2.85109,0.26458 -3.84375,0.71875 -4.3415,1.98643 -8.29798,9.16962 -8.78515,15.94922 -0.15558,2.16503 -0.082,2.81205 0.46679,4.05273 0.75504,1.70688 1.85277,2.53907 3.71485,2.81446 4.76579,0.70483 9.09709,-2.16714 11.71875,-7.76953 3.27775,-7.00441 3.39116,-13.47914 0.26562,-15.16602 -0.78836,-0.4255 -2.13731,-0.62215 -3.53711,-0.59961 z m -84.72851,0.0117 c -3.00483,0 -5.42305,1.07617 -7.35547,3.27148 -4.06054,4.61303 -6.57292,13.60295 -4.875,17.44141 0.75344,1.70327 1.85187,2.53532 3.71289,2.81055 3.32,0.49101 6.31967,-0.66767 8.82617,-3.41016 4.07478,-4.45849 6.63632,-13.78371 4.81836,-17.53906 -0.93395,-1.92928 -2.21829,-2.57422 -5.12695,-2.57422 z m -190.57422,0.004 c -2.24797,0.004 -2.84049,0.13544 -4.66406,1.0332 -4.08903,2.01302 -7.11973,6.26327 -8.59571,12.05469 -1.56802,6.15257 -0.1685,9.8045 3.99414,10.42187 1.71626,0.25456 4.03134,0.0745 6.59961,-0.51562 l 2.11914,-0.48828 1.80274,-5.81446 c 0.99079,-3.19849 1.79947,-5.99484 1.79883,-6.21484 -6.8e-4,-0.29638 -0.93768,-0.40039 -3.6211,-0.40039 h -3.62304 l -0.53711,1.70703 c -0.74813,2.37337 -0.72509,2.45312 0.76171,2.45312 1.09253,0 1.27491,0.0885 1.12891,0.5586 -0.0957,0.308 -0.43219,1.41466 -0.74805,2.45898 -0.49343,1.63143 -0.70823,1.93692 -1.52734,2.16211 -1.29935,0.35724 -2.61524,0.0285 -3.19336,-0.79687 -1.18062,-1.68557 0.0305,-7.82578 2.16406,-10.97071 2.27592,-3.35481 4.80737,-4.34918 7.75586,-3.04492 0.8456,0.37405 1.56677,0.6419 1.60157,0.5957 0.61146,-0.81154 2.39843,-3.6517 2.39843,-3.8125 0,-0.60195 -3.19347,-1.39071 -5.61523,-1.38671 z m 300.81445,0.0918 -3.48242,11.3125 c -1.91568,6.22163 -3.55157,11.49289 -3.63477,11.71289 -0.11261,0.29792 0.46297,0.39844 2.25391,0.39844 h 2.4043 l 1.16601,-3.75976 c 0.64109,-2.068 1.22513,-3.94016 1.29883,-4.16016 0.0844,-0.25203 0.75942,-0.39935 1.82422,-0.40234 4.48471,-0.008 8.36845,-3.91173 9.2793,-9.32813 0.28169,-1.67514 0.25462,-2.23327 -0.15821,-3.20703 -0.79469,-1.8744 -1.94094,-2.28483 -6.79101,-2.43555 z m -353.59961,0.002 -3.4707,11.2832 c -1.90837,6.2055 -3.54231,11.47523 -3.63281,11.71094 -0.12844,0.33471 0.36249,0.42773 2.24023,0.42773 h 2.4043 l 1.16406,-3.75976 c 0.64107,-2.068 1.22708,-3.94016 1.30078,-4.16016 0.0845,-0.25203 0.75942,-0.39935 1.82422,-0.40234 4.48468,-0.008 8.36844,-3.91173 9.2793,-9.32813 0.2817,-1.67514 0.25268,-2.23327 -0.16016,-3.20703 -0.79479,-1.87466 -1.93895,-2.2856 -6.78906,-2.43555 z m -7.51953,0.0391 -2.93555,0.0918 -2.93359,0.0918 -6.3457,11.4961 c -3.49019,6.32281 -6.34571,11.54241 -6.34571,11.5996 0,0.0572 1.15027,0.10352 2.55665,0.10352 h 2.55664 l 1.44726,-2.87891 1.44531,-2.88085 h 2.40821 2.4082 l -0.18359,1.67968 c -0.10067,0.924 -0.25049,2.22086 -0.33399,2.88086 l -0.15234,1.19922 h 2.56445 c 2.22782,0 2.56345,-0.072 2.56445,-0.55859 7.8e-4,-0.308 0.28824,-4.88016 0.63868,-10.16016 0.35044,-5.27999 0.63803,-10.29022 0.63867,-11.13281 z m 290.5586,0 -2.9336,0.0918 -2.93359,0.0918 -6.34571,11.4961 c -3.49016,6.3228 -6.3457,11.54241 -6.3457,11.5996 0,0.0572 1.1504,0.10352 2.55664,0.10352 h 2.55664 l 1.44727,-2.87891 1.44726,-2.88085 h 2.41993 2.41796 l -0.19531,1.83984 c -0.10807,1.012 -0.26882,2.30886 -0.35742,2.88086 l -0.16211,1.03906 h 2.57617 c 2.23802,0 2.57422,-0.0718 2.57422,-0.55859 8e-4,-0.308 0.28824,-4.88016 0.63867,-10.16016 0.35043,-5.27999 0.63868,-10.29022 0.63868,-11.13281 z m -308.35938,0.0231 -1.41016,4.64062 -1.41211,4.64063 h -2.64843 c -1.45678,0 -2.64658,-0.0361 -2.64258,-0.0801 0.004,-0.044 0.63792,-2.09655 1.4082,-4.56055 l 1.40039,-4.48047 -2.24609,-0.0937 c -1.23567,-0.0522 -2.3176,-0.0242 -2.4043,0.0625 -0.19178,0.19177 -7.125,22.53092 -7.125,22.95703 0,0.1703 1.00995,0.26199 2.31446,0.20899 l 2.31445,-0.0937 1.45898,-4.64063 c 0.80212,-2.55199 1.52578,-4.82692 1.60938,-5.05469 0.11127,-0.30299 0.84338,-0.38921 2.72851,-0.32031 l 2.57422,0.0957 -1.53906,4.95703 c -0.84721,2.72652 -1.54102,4.99356 -1.54102,5.03906 0,0.0455 1.07077,0.082 2.37891,0.082 1.98908,0 2.4052,-0.0903 2.54297,-0.55859 0.0906,-0.308 1.68376,-5.47927 3.54101,-11.49024 1.85725,-6.01094 3.37696,-11.01409 3.37696,-11.11914 0,-0.10498 -1.05303,-0.1914 -2.33985,-0.1914 z m 49.51562,0 -1.11914,3.59961 c -4.02905,12.9684 -5.95703,19.28102 -5.95703,19.5039 0,0.14092 0.97463,0.25578 2.16602,0.25586 h 2.16601 l 1.25977,-4.07812 c 0.6929,-2.244 1.72094,-5.66557 2.2832,-7.60157 l 1.02149,-3.51953 0.19922,1.43946 c 0.30326,2.19212 1.46484,12.73238 1.46484,13.29296 0,0.41346 0.44705,0.47789 2.75977,0.40039 l 2.75976,-0.0918 3.47461,-11.20117 c 1.91147,-6.16 3.47747,-11.37961 3.48047,-11.59961 0.004,-0.28141 -0.63465,-0.39949 -2.1543,-0.39649 l -2.16015,0.004 -1.81641,5.99609 c -0.99944,3.29776 -2.01366,6.71625 -2.25195,7.59571 l -0.4336,1.59765 -0.74414,-6.55859 c -0.40984,-3.60746 -0.82061,-7.02566 -0.91211,-7.59766 l -0.16601,-1.04101 h -2.66016 z m 48.06836,0 -0.53125,1.91601 c -0.29285,1.05334 -0.5332,1.98185 -0.5332,2.06445 0,0.0826 0.91208,0.1941 2.02735,0.2461 l 2.02929,0.0937 -2.82422,9.11914 c -1.55297,5.01599 -2.82612,9.30148 -2.82812,9.52148 -0.003,0.28211 0.65349,0.39844 2.22461,0.39844 h 2.22656 l 1.10156,-3.51562 c 0.60574,-1.93414 1.94367,-6.25376 2.97266,-9.59961 l 1.87109,-6.08399 h 2.13672 2.13672 l 0.50391,-1.72851 c 0.27651,-0.9511 0.50195,-1.88718 0.50195,-2.08008 0,-0.24285 -2.00248,-0.35156 -6.50781,-0.35156 z m 15.39649,0 -3.47461,11.27929 c -1.9113,6.204 -3.5429,11.46164 -3.625,11.68164 -0.111,0.29763 0.46283,0.39844 2.24219,0.39844 h 2.39062 l 1.02149,-3.2793 c 0.56176,-1.80399 1.2779,-4.07106 1.58984,-5.03906 l 0.56641,-1.76172 2.61523,-0.0918 c 1.43782,-0.0511 2.6134,-0.0511 2.61328,0 -1.3e-4,0.0511 -0.64669,2.18042 -1.43554,4.73242 -0.78887,2.55199 -1.43646,4.82697 -1.43946,5.05469 -0.004,0.30939 0.57621,0.39061 2.29492,0.32031 l 2.30078,-0.0937 3.45899,-11.19922 c 1.90301,-6.15949 3.46094,-11.38701 3.46094,-11.61524 0,-0.31003 -0.58034,-0.39061 -2.29493,-0.32031 -2.13119,0.0873 -2.31112,0.15143 -2.54101,0.89453 -0.13613,0.44 -0.76856,2.4906 -1.4043,4.5586 l -1.15625,3.75976 h -2.54101 c -1.82371,0 -2.54111,-0.1115 -2.53711,-0.39844 0.003,-0.21999 0.57869,-2.20039 1.27929,-4.40039 0.70061,-2.19999 1.27537,-4.10823 1.27539,-4.24023 0,-0.132 -1.04856,-0.24023 -2.33007,-0.24023 z m 18.54101,0 -3.47656,11.28125 c -1.91251,6.20399 -3.54174,11.46315 -3.61914,11.6875 -0.11107,0.323 0.9849,0.38971 5.21289,0.32031 l 5.35352,-0.0879 0.59961,-1.91992 c 0.32938,-1.056 0.60051,-1.956 0.60351,-2 0.003,-0.044 -1.3076,-0.0801 -2.91211,-0.0801 -2.62431,0 -2.90159,-0.0568 -2.76172,-0.56055 0.0855,-0.308 0.49701,-1.67477 0.91602,-3.03711 l 0.76172,-2.47656 2.74219,-0.004 2.74218,-0.002 0.53711,-1.70898 c 0.29613,-0.93946 0.53907,-1.79852 0.53907,-1.90821 0,-0.10967 -1.19235,-0.24011 -2.65039,-0.29101 l -2.6504,-0.0918 0.76563,-2.48047 0.76562,-2.48047 h 2.94727 2.94531 l 0.53907,-1.70703 c 0.29612,-0.93946 0.53906,-1.87554 0.53906,-2.08008 0,-0.2673 -1.46909,-0.37304 -5.22071,-0.37304 z m 48.03516,0 -2.38476,7.73046 c -3.3513,10.85954 -3.68351,11.46875 -6.23829,11.46875 -0.91738,0 -1.20899,-0.1543 -1.4414,-0.76562 -0.36138,-0.9505 -0.42542,-0.68532 2.42578,-9.93555 1.29891,-4.21407 2.36133,-7.85612 2.36133,-8.09375 0,-0.33105 -0.53209,-0.40999 -2.28125,-0.33789 l -2.28321,0.0937 -2.5625,8.16016 c -2.15026,6.84658 -2.56825,8.53193 -2.59765,10.47265 -0.0331,2.17748 0.0222,2.37096 0.94922,3.29883 0.70928,0.70985 1.42604,1.05229 2.56054,1.22461 4.59491,0.69786 8.4477,-1.23134 10.45703,-5.23633 0.40586,-0.80893 5.67774,-17.44983 5.67774,-17.92187 0,-0.0872 -1.04343,-0.1582 -2.32031,-0.1582 z m 6.66797,0 -0.53125,1.91601 c -0.29286,1.05334 -0.5332,1.98185 -0.5332,2.06445 0,0.0826 0.90973,0.1941 2.02148,0.2461 l 2.02148,0.0937 -2.82226,9.11523 c -1.55175,5.01309 -2.82031,9.29662 -2.82031,9.51953 0,0.28803 0.64022,0.4043 2.21679,0.4043 h 2.21875 l 1.28125,-4.07812 c 0.70422,-2.244 2.03979,-6.56557 2.96875,-9.60157 l 1.68946,-5.51953 h 2.11328 2.11523 l 0.53711,-1.70703 c 0.29613,-0.93946 0.53906,-1.87554 0.53906,-2.08008 0,-0.2703 -1.77763,-0.37304 -6.50781,-0.37304 z m 211.89453,0 -6.31836,11.46289 c -3.476,6.30361 -6.32031,11.55949 -6.32031,11.67968 0,0.12019 1.11647,0.2168 2.48047,0.2168 h 2.47851 l 1.44141,-2.79883 1.43945,-2.79883 2.36719,-0.0957 2.36719,-0.0957 -0.22071,2.91015 -0.21875,2.90821 2.49219,-0.0937 2.49219,-0.0937 0.52344,-8.32032 c 0.28803,-4.57599 0.62247,-9.79561 0.74218,-11.5996 l 0.2168,-3.28125 h -2.98047 z m 28.76563,0 -3.47266,11.27929 c -1.91008,6.204 -3.53844,11.46511 -3.61914,11.68946 -0.116,0.323 0.97654,0.38785 5.20703,0.31836 l 5.35352,-0.0879 0.59765,-1.91992 c 0.32938,-1.056 0.60052,-1.956 0.60352,-2 0.003,-0.044 -1.30536,-0.0801 -2.90821,-0.0801 -2.1917,0 -2.88121,-0.0976 -2.77734,-0.39843 0.076,-0.22 0.48721,-1.58793 0.91406,-3.03907 l 0.77735,-2.63867 h 2.77734 l 2.77734,-0.002 0.50196,-1.73047 c 0.27651,-0.9511 0.50195,-1.81502 0.50195,-1.91992 0,-0.10495 -1.15059,-0.19141 -2.55859,-0.19141 -1.75251,0 -2.56055,-0.11865 -2.56055,-0.37695 0,-0.20749 0.3165,-1.35809 0.70312,-2.55859 l 0.70313,-2.1836 h 2.91797 2.91797 l 0.53906,-1.70898 c 0.29613,-0.93945 0.53906,-1.87358 0.53906,-2.07813 0,-0.26729 -1.46845,-0.37304 -5.21875,-0.37304 z m -385.88477,0.002 -3.48438,11.2793 c -1.91603,6.20345 -3.54835,11.45968 -3.62695,11.67968 -0.10624,0.29728 0.47824,0.40039 2.27149,0.40039 h 2.41211 l 1.00976,-3.27929 c 0.55557,-1.804 2.14717,-6.9488 3.53516,-11.43164 1.38798,-4.48284 2.52343,-8.26323 2.52343,-8.40039 1e-5,-0.13715 -1.04431,-0.24805 -2.32031,-0.24805 z m 274.88086,0 -3.4707,11.25 c -1.90838,6.18796 -3.54462,11.44743 -3.63672,11.6875 -0.13818,0.36011 0.77132,0.42211 5.19726,0.34961 l 5.36524,-0.0879 0.38281,-1.1211 c 0.21017,-0.616 0.47894,-1.516 0.59766,-2 l 0.21484,-0.8789 h -2.88477 c -1.58735,0 -2.88385,-0.0361 -2.88086,-0.0801 0.003,-0.044 0.40609,-1.37694 0.89649,-2.96094 l 0.89062,-2.8789 2.77539,-0.0918 2.77344,-0.0937 0.49024,-1.64453 c 0.2688,-0.90518 0.48828,-1.76414 0.48828,-1.90821 0,-0.14406 -1.15255,-0.26171 -2.56055,-0.26171 -1.408,0 -2.55859,-0.0843 -2.55859,-0.1875 0,-0.1032 0.3084,-1.25575 0.6875,-2.56055 l 0.68945,-2.37305 h 2.97852 2.97851 l 0.49219,-1.6582 c 0.79302,-2.67049 1.11075,-2.5 -4.70703,-2.5 z m -102.32031,0.002 -2.32032,0.004 -1.38281,4.55469 c -3.41285,11.24695 -3.91979,12.67174 -4.86133,13.67968 -0.80448,0.86117 -1.11364,0.98229 -2.30273,0.89649 -1.35571,-0.0978 -1.37529,-0.11574 -1.46289,-1.37891 -0.0616,-0.88784 0.68739,-3.77949 2.44141,-9.43945 l 2.52734,-8.16016 -2.23828,-0.0957 c -1.23117,-0.0522 -2.30959,-0.0244 -2.39649,0.0625 -0.36829,0.36828 -5.21204,16.49408 -5.39453,17.95898 -0.36659,2.94221 1.03211,4.86681 3.83203,5.27344 4.34375,0.63078 8.16916,-1.29837 10.10743,-5.09766 0.53861,-1.0558 5.77148,-17.41657 5.77148,-18.04492 0,-0.11957 -1.04431,-0.21589 -2.32031,-0.21289 z m 71.67968,0.002 -5.20117,0.004 -3.45312,11.27539 c -1.89923,6.20118 -3.44646,11.45578 -3.43946,11.67578 0.009,0.28042 0.6796,0.39844 2.24024,0.39844 h 2.22656 l 1.31055,-4.23828 c 0.72154,-2.332 1.37086,-4.42063 1.44336,-4.64063 0.0917,-0.27827 0.96045,-0.40039 2.85156,-0.40039 h 2.71875 l 0.61328,-2 0.61524,-2 -2.7129,-0.0918 c -2.40737,-0.0824 -2.6887,-0.15503 -2.50195,-0.64063 0.11571,-0.3009 0.51888,-1.59119 0.89453,-2.86719 l 0.68164,-2.32031 h 2.91797 2.91797 l 0.53906,-1.70703 c 0.29613,-0.93946 0.53711,-1.87554 0.53711,-2.08008 0,-0.26749 -1.45938,-0.37118 -5.19922,-0.36719 z m -65.67968,0.004 -3.54883,11.51367 c -1.95184,6.33203 -3.47592,11.58463 -3.38672,11.67383 v 0.002 c 0.0892,0.0891 1.13889,0.16211 2.33398,0.16211 h 2.17383 l 1.29297,-4.11718 c 0.71155,-2.2639 1.29492,-4.28037 1.29492,-4.48047 0,-0.39513 1.27496,-0.5172 1.28516,-0.12305 0.003,0.132 0.21774,2.11239 0.47656,4.40039 0.25882,2.288 0.47161,4.19624 0.47461,4.24024 0.009,0.21606 5.12305,0.0445 5.12305,-0.17188 0,-0.13788 -0.35806,-2.40494 -0.79492,-5.03906 l -0.79297,-4.78906 0.70117,-0.48047 c 2.59005,-1.77341 4.00128,-3.86396 4.61133,-6.82422 0.65571,-3.18189 -0.39399,-5.00301 -3.26953,-5.66992 -0.69037,-0.16013 -2.76724,-0.29297 -4.61524,-0.29297 z m 110.58007,0.0293 c -0.56787,0.0612 -0.68996,0.20856 -0.77148,0.48437 -0.0971,0.32822 -1.69549,5.51443 -3.55273,11.52539 -1.85725,6.01095 -3.37696,11.01605 -3.37696,11.1211 0,0.10498 1.05749,0.18945 2.34961,0.18945 h 2.34961 l 0.39649,-1.35937 c 1.67743,-5.76099 2.37685,-7.59961 2.89257,-7.59961 0.46137,0 0.61104,0.6569 0.99805,4.40039 l 0.45508,4.40039 2.20703,0.0957 c 1.21452,0.0527 2.37925,0.0293 2.58789,-0.0508 0.28266,-0.10848 0.18952,-1.31585 -0.36328,-4.73633 -0.408,-2.52457 -0.74309,-4.7555 -0.74609,-4.95898 -0.003,-0.20349 0.68148,-0.86331 1.52148,-1.4668 2.9607,-2.12707 4.76593,-7.26239 3.44922,-9.80859 -0.82173,-1.58906 -2.24861,-2.04314 -6.94336,-2.20704 -1.87014,-0.0653 -2.88525,-0.0906 -3.45313,-0.0293 z m -168.18164,0.0332 -5.35742,0.0879 -3.47461,11.19922 c -1.91174,6.15999 -3.47942,11.38753 -3.48242,11.61524 -0.004,0.30939 0.57499,0.39051 2.28906,0.32031 l 2.29493,-0.0937 0.4082,-1.28125 c 0.2246,-0.704 0.8572,-2.74956 1.40625,-4.54688 l 1,-3.26758 2.74609,-0.0937 2.74805,-0.0918 0.38086,-1.11914 c 0.20989,-0.616 0.47894,-1.516 0.59765,-2 l 0.2168,-0.88086 h -2.6914 -2.69141 l 0.86133,-2.79883 0.86133,-2.80078 2.92187,-0.0918 2.92188,-0.0918 0.54882,-1.66796 c 0.30163,-0.91757 0.61642,-1.85183 0.69922,-2.07618 0.11911,-0.323 -0.97107,-0.38981 -5.20508,-0.32031 z m 79.31055,0 -5.33008,0.0879 -3.46484,11.19922 c -1.90637,6.15999 -3.4677,11.38156 -3.4707,11.60156 -0.003,0.3039 1.25528,0.40039 5.23437,0.40039 h 5.23828 l 0.52149,-1.86132 c 0.2872,-1.02356 0.52148,-1.95451 0.52148,-2.06836 0,-0.11386 -1.267,-0.24823 -2.81641,-0.29883 l -2.8164,-0.0918 0.9043,-2.94922 0.90625,-2.94726 2.77343,-0.0918 2.77344,-0.0918 0.54492,-1.83984 0.54492,-1.83984 h -2.69336 -2.69335 l 0.21679,-0.88086 c 0.11929,-0.484 0.45967,-1.60047 0.75586,-2.48047 l 0.53906,-1.59961 2.9668,-0.16016 2.96875,-0.16015 0.59766,-1.91993 c 0.3289,-1.056 0.60051,-1.95951 0.60351,-2.00781 0.003,-0.0482 -2.39478,-0.0482 -5.32617,0 z m 26.02149,3.85938 c 0.87736,-0.0865 1.65939,0.29607 2.02539,1.17968 0.50285,1.21398 0.23733,3.09709 -0.97461,6.89063 -1.00617,3.1495 -2.28506,5.41683 -3.66211,6.5 -1.05539,0.83018 -2.78135,0.91613 -3.40039,0.16797 -1.36131,-1.6454 0.67275,-9.44269 3.41797,-13.10352 0.7447,-0.99309 1.71638,-1.54829 2.59375,-1.63476 z m 84.71289,0.041 c 0.95394,-0.19643 1.79279,0.13707 2.15234,1.07617 0.92173,2.40745 -1.68718,10.66525 -4.08594,12.93164 -1.90758,1.80233 -3.79894,1.70544 -4.33203,-0.2207 -0.56512,-2.04195 1.40828,-8.77319 3.42383,-11.68164 0.81899,-1.18179 1.88786,-1.90904 2.8418,-2.10547 z m -322.21289,0.1875 c 0.55095,0 1.17356,0.17357 1.38476,0.38477 0.94739,0.94739 -0.15148,4.81342 -1.64648,5.79297 -0.80151,0.52518 -2.76953,1.02104 -2.76953,0.69726 0,-0.1192 0.45582,-1.71612 1.01367,-3.54687 1.00554,-3.29987 1.02449,-3.32813 2.01758,-3.32813 z m 194.27929,0 c 1.0216,-1.9e-4 2.05188,0.81803 2.04688,1.625 -0.002,0.25015 -0.3438,1.1867 -0.75977,2.08008 -0.55155,1.18445 -1.06156,1.7695 -1.88476,2.16016 -0.6209,0.29462 -1.41245,0.53515 -1.75782,0.53515 -0.59939,0 -0.58186,-0.14501 0.36914,-3.19922 0.98054,-3.14919 1.01161,-3.20101 1.98633,-3.20117 z m 109.76172,0 c 1.37251,0 2.04688,0.55852 2.04688,1.69141 -6.7e-4,1.4504 -0.93197,3.13061 -2.20703,3.98242 -1.18169,0.78941 -2.76187,0.99494 -2.50782,0.32617 0.0836,-0.22 0.53498,-1.65922 1.00391,-3.19922 0.77917,-2.55887 0.92313,-2.80078 1.66406,-2.80078 z m 49.55859,0 c 0.55095,0 1.17357,0.17357 1.38477,0.38477 0.94739,0.94739 -0.15149,4.81342 -1.64648,5.79297 -0.80151,0.52518 -2.76953,1.02104 -2.76953,0.69726 0,-0.1192 0.45777,-1.71612 1.01562,-3.54687 1.00554,-3.29987 1.02254,-3.32813 2.01562,-3.32813 z m -369.91015,0.96094 c 0.088,0 0.16015,0.0702 0.16015,0.1582 0,0.088 -0.0722,0.16016 -0.16015,0.16016 -0.088,0 -0.16016,-0.0722 -0.16016,-0.16016 0,-0.088 0.0722,-0.1582 0.16016,-0.1582 z m 290.55859,0 c 0.088,0 0.16016,0.0702 0.16016,0.1582 0,0.088 -0.0722,0.16016 -0.16016,0.16016 -0.088,0 -0.1582,-0.0722 -0.1582,-0.16016 0,-0.088 0.0702,-0.1582 0.1582,-0.1582 z m -290.80468,0.76562 c 0.0546,0.0546 -0.0721,1.84854 -0.28126,3.98633 l -0.38085,3.88672 h -1.70508 -1.70313 l 1.98438,-3.98633 c 1.09205,-2.19238 2.03134,-3.94132 2.08594,-3.88672 z m 290.55859,0 c 0.0546,0.0546 -0.0721,1.84854 -0.28125,3.98633 l -0.37891,3.88672 h -1.70508 -1.70507 l 1.98632,-3.98633 c 1.09206,-2.19237 2.02939,-3.94132 2.08399,-3.88672 z m 95.66601,0.19532 c 0.0382,0.0491 0.0323,0.21592 -0.006,0.47851 -0.10223,0.704 -0.27035,2.07107 -0.37304,3.03907 -0.10269,0.96799 -0.26523,2.30093 -0.36133,2.96093 l -0.17578,1.19922 h -1.57031 c -0.86454,0 -1.57227,-0.0837 -1.57227,-0.18555 0,-0.10189 0.95357,-2.00817 2.11914,-4.23828 1.30428,-2.49557 1.82474,-3.40106 1.93945,-3.2539 z" />
    <rect
       style="fill:none;fill-opacity:1;stroke:none;stroke-width:3.5;stroke-linejoin:bevel;stroke-dasharray:none;stroke-opacity:1;paint-order:fill markers stroke"
       id="rect27363"
       width="476.19864"
       height="63.16713"
       x="184.93736"
       y="314.88861" />
  </g>
</svg>
